<svg width="28" height="28" viewBox="0 0 28 28" fill="none" xmlns="http://www.w3.org/2000/svg">
<rect width="28" height="28" rx="14" fill="white"/>
<path d="M14.0187 13.9999C14.0187 12.5272 15.2126 11.3333 16.6853 11.3333C18.1581 11.3333 19.352 12.5272 19.352 13.9999C19.352 15.4727 18.1581 16.6666 16.6853 16.6666C15.2126 16.6666 14.0187 15.4727 14.0187 13.9999Z" fill="#00BCFF"/>
<path d="M8.68542 19.3334C8.68542 17.8607 9.87933 16.6668 11.3521 16.6668L12.7732 15.9165L14.0187 16.6668V19.3334C14.0187 20.8062 12.8248 22.0001 11.3521 22.0001C9.87933 22.0001 8.68542 20.8062 8.68542 19.3334Z" fill="#00CF7F"/>
<path d="M14.0187 6L12.5676 8.52094L14.0187 11.3333H16.6479C18.1207 11.3333 19.3146 10.1394 19.3146 8.66666C19.3146 7.19391 18.1207 6 16.6479 6H14.0187Z" fill="#FF7361"/>
<path d="M8.64795 8.66666C8.64795 10.1394 9.84186 11.3333 11.3146 11.3333L12.7292 11.8797L14.0187 11.3333V6H11.3146C9.84186 6 8.64795 7.19391 8.64795 8.66666Z" fill="#FF4D12"/>
<path d="M8.68542 13.9999C8.68542 15.4727 9.87933 16.6666 11.3521 16.6666H14.0187V11.3333H11.3521C9.87933 11.3333 8.68542 12.5272 8.68542 13.9999Z" fill="#B659FF"/>
</svg>
