<svg width="28" height="28" viewBox="0 0 28 28" fill="none" xmlns="http://www.w3.org/2000/svg">
<path d="M14 0C21.732 2.57703e-07 28 6.26801 28 14C28 21.732 21.732 28 14 28C6.26801 28 2.5772e-07 21.732 0 14C0 6.26801 6.26801 0 14 0ZM20.8789 9.5957C21.1138 8.65331 20.5191 8.22627 19.9033 8.50586L6.41797 13.7051C5.49751 14.0743 5.50276 14.5885 6.25 14.8174L9.71094 15.8975L17.7227 10.8428C18.1009 10.6134 18.448 10.7364 18.1631 10.9893L11.6709 16.8477L11.4336 20.417C11.7834 20.4169 11.9385 20.2563 12.1338 20.0664L13.8145 18.4316L17.3135 21.0166C17.957 21.3716 18.4216 21.1875 18.582 20.4189L20.8789 9.5957Z" fill="white"/>
</svg>
