<svg width="28" height="28" viewBox="0 0 28 28" fill="none" xmlns="http://www.w3.org/2000/svg">
<path d="M14 0C21.732 0 28 6.26801 28 14C28 21.732 21.732 28 14 28C6.26801 28 0 21.732 0 14C0 6.26801 6.26801 0 14 0ZM17.8643 9.10742C17.2094 8.43054 16.7985 7.51687 16.7715 6.50195C15.9595 6.50845 15.1466 6.50215 14.3281 6.51465L14.3262 6.5127C14.3077 9.0242 14.3195 11.5367 14.3135 14.0547C14.3075 15.1731 14.332 16.2849 14.2695 17.4033V17.4102C14.239 17.6547 14.1472 17.8804 14.0137 18.0664L14.0088 18.0752C13.6498 18.6565 13.0146 19.0503 12.2832 19.0723H12.2881C12.2581 19.0738 12.2278 19.0742 12.1973 19.0742C11.14 19.0741 10.2628 18.3021 10.0967 17.2793L10.0977 17.291C10.0857 17.1911 10.0791 17.0892 10.0791 16.9863C10.0791 16.7325 10.1182 16.4868 10.1846 16.2734L10.1895 16.2578C10.4835 15.4245 11.278 14.8271 12.2119 14.8271C12.4663 14.8272 12.7105 14.8718 12.9219 14.9482C12.9219 14.0239 12.9588 13.0991 12.9463 12.1748L12.9746 12.1787C12.7142 12.1342 12.4462 12.1104 12.1729 12.1104C9.73935 12.1104 7.73719 13.9591 7.49219 16.3486C7.4797 16.6545 7.48555 16.9669 7.49805 17.2793L7.5 17.2998C7.66 18.8013 8.5253 20.0922 9.7793 20.8467L9.75879 20.8359C10.4477 21.2543 11.2563 21.495 12.1211 21.4951C12.1939 21.4951 12.2667 21.4932 12.3281 21.4902H12.3359C13.7621 21.447 15.0273 20.7622 15.8604 19.7021L16.0107 19.5C16.5047 18.7945 16.8128 17.9499 16.8643 17.0234C16.8828 15.2055 16.871 13.3811 16.877 11.5566L17.0908 11.6973C17.3354 11.8517 17.5955 11.9963 17.8896 12.1377L17.8486 12.1201C18.659 12.4991 19.5578 12.7201 20.5137 12.7441V10.2256L20.5 10.2246C19.488 10.1546 18.5698 9.74292 17.8643 9.10742Z" fill="white"/>
</svg>
