<svg width="24" height="16" viewBox="0 0 24 16" fill="none" xmlns="http://www.w3.org/2000/svg">
<path fill-rule="evenodd" clip-rule="evenodd" d="M23.3333 1C23.3333 1.55228 22.8855 2 22.3333 2L0.999918 2C0.447634 2 -8.2016e-05 1.55228 -8.2016e-05 1C-8.2016e-05 0.447715 0.447634 0 0.999918 0L22.3333 0C22.8855 0 23.3333 0.447715 23.3333 1Z" fill="#5E5E5E"/>
<path fill-rule="evenodd" clip-rule="evenodd" d="M23.3333 7.66663C23.3333 8.21891 22.8855 8.66663 22.3333 8.66663L0.999918 8.66663C0.447634 8.66663 -8.2016e-05 8.21891 -8.2016e-05 7.66663C-8.2016e-05 7.11434 0.447634 6.66663 0.999918 6.66663L22.3333 6.66663C22.8855 6.66663 23.3333 7.11434 23.3333 7.66663Z" fill="#5E5E5E"/>
<path fill-rule="evenodd" clip-rule="evenodd" d="M23.3333 14.3333C23.3333 14.8855 22.8855 15.3333 22.3333 15.3333L0.999918 15.3333C0.447634 15.3333 -8.2016e-05 14.8855 -8.2016e-05 14.3333C-8.2016e-05 13.781 0.447634 13.3333 0.999918 13.3333L22.3333 13.3333C22.8855 13.3333 23.3333 13.781 23.3333 14.3333Z" fill="#5E5E5E"/>
</svg>
