<svg width="20" height="20" viewBox="0 0 20 20" fill="none" xmlns="http://www.w3.org/2000/svg">
<path fill-rule="evenodd" clip-rule="evenodd" d="M9.58341 2.29163C5.55634 2.29163 2.29175 5.55622 2.29175 9.58329C2.29175 13.6104 5.55634 16.875 9.58341 16.875C13.6105 16.875 16.8751 13.6104 16.8751 9.58329C16.8751 5.55622 13.6105 2.29163 9.58341 2.29163ZM1.04175 9.58329C1.04175 4.86586 4.86598 1.04163 9.58341 1.04163C14.3008 1.04163 18.1251 4.86586 18.1251 9.58329C18.1251 11.7171 17.3427 13.6681 16.0491 15.1651L18.7754 17.8913C19.0194 18.1354 19.0194 18.5312 18.7754 18.7752C18.5313 19.0193 18.1356 19.0193 17.8915 18.7752L15.1653 16.049C13.6682 17.3426 11.7172 18.125 9.58341 18.125C4.86598 18.125 1.04175 14.3007 1.04175 9.58329Z" fill="#A3A3A3"/>
</svg>
