<svg width="20" height="20" viewBox="0 0 20 20" fill="none" xmlns="http://www.w3.org/2000/svg">
<path d="M8.35866 7.47467C8.11459 7.23059 7.71886 7.23059 7.47478 7.47467C7.2307 7.71875 7.2307 8.11448 7.47478 8.35855L9.11618 9.99996L7.4748 11.6413C7.23072 11.8854 7.23072 12.2811 7.4748 12.5252C7.71888 12.7693 8.1146 12.7693 8.35868 12.5252L10.0001 10.8838L11.6414 12.5252C11.8855 12.7693 12.2812 12.7693 12.5253 12.5252C12.7694 12.2811 12.7694 11.8854 12.5253 11.6413L10.8839 9.99996L12.5253 8.35857C12.7694 8.11449 12.7694 7.71877 12.5253 7.47469C12.2813 7.23061 11.8855 7.23061 11.6414 7.47469L10.0001 9.11607L8.35866 7.47467Z" fill="#F3164E"/>
<path fill-rule="evenodd" clip-rule="evenodd" d="M10.0001 1.04163C5.05253 1.04163 1.04175 5.05241 1.04175 9.99996C1.04175 14.9475 5.05253 18.9583 10.0001 18.9583C14.9476 18.9583 18.9584 14.9475 18.9584 9.99996C18.9584 5.05241 14.9476 1.04163 10.0001 1.04163ZM2.29175 9.99996C2.29175 5.74276 5.74289 2.29163 10.0001 2.29163C14.2573 2.29163 17.7084 5.74276 17.7084 9.99996C17.7084 14.2572 14.2573 17.7083 10.0001 17.7083C5.74289 17.7083 2.29175 14.2572 2.29175 9.99996Z" fill="#F3164E"/>
<path d="M8.35866 7.47467C8.11459 7.23059 7.71886 7.23059 7.47478 7.47467C7.2307 7.71875 7.2307 8.11448 7.47478 8.35855L9.11618 9.99996L7.4748 11.6413C7.23072 11.8854 7.23072 12.2811 7.4748 12.5252C7.71888 12.7693 8.1146 12.7693 8.35868 12.5252L10.0001 10.8838L11.6414 12.5252C11.8855 12.7693 12.2812 12.7693 12.5253 12.5252C12.7694 12.2811 12.7694 11.8854 12.5253 11.6413L10.8839 9.99996L12.5253 8.35857C12.7694 8.11449 12.7694 7.71877 12.5253 7.47469C12.2813 7.23061 11.8855 7.23061 11.6414 7.47469L10.0001 9.11607L8.35866 7.47467Z" stroke="#F3164E"/>
<path fill-rule="evenodd" clip-rule="evenodd" d="M10.0001 1.04163C5.05253 1.04163 1.04175 5.05241 1.04175 9.99996C1.04175 14.9475 5.05253 18.9583 10.0001 18.9583C14.9476 18.9583 18.9584 14.9475 18.9584 9.99996C18.9584 5.05241 14.9476 1.04163 10.0001 1.04163ZM2.29175 9.99996C2.29175 5.74276 5.74289 2.29163 10.0001 2.29163C14.2573 2.29163 17.7084 5.74276 17.7084 9.99996C17.7084 14.2572 14.2573 17.7083 10.0001 17.7083C5.74289 17.7083 2.29175 14.2572 2.29175 9.99996Z" stroke="#F3164E"/>
</svg>
