<svg width="30" height="30" viewBox="0 0 30 30" fill="none" xmlns="http://www.w3.org/2000/svg">
<path fill-rule="evenodd" clip-rule="evenodd" d="M24.4515 3.49307V0.582178C24.4515 0.427775 24.5128 0.279696 24.622 0.170516C24.7312 0.0613365 24.8793 0 25.0337 0C25.1881 0 25.3361 0.0613365 25.4453 0.170516C25.5545 0.279696 25.6158 0.427775 25.6158 0.582178V3.49307H28.5267C28.6811 3.49307 28.8292 3.55441 28.9384 3.66359C29.0476 3.77277 29.1089 3.92084 29.1089 4.07525C29.1089 4.22965 29.0476 4.37773 28.9384 4.48691C28.8292 4.59609 28.6811 4.65743 28.5267 4.65743H25.6158V24.4515H28.5267C28.6811 24.4515 28.8292 24.5128 28.9384 24.622C29.0476 24.7312 29.1089 24.8793 29.1089 25.0337C29.1089 25.1881 29.0476 25.3361 28.9384 25.4453C28.8292 25.5545 28.6811 25.6158 28.5267 25.6158H25.6158V28.5267C25.6158 28.8478 25.355 29.1089 25.0337 29.1089C24.7123 29.1089 24.4515 28.8478 24.4515 28.5267V25.6158H4.65743V28.5267C4.65743 28.8478 4.39663 29.1089 4.07525 29.1089C3.75386 29.1089 3.49307 28.8478 3.49307 28.5267V25.6158H0.582178C0.427775 25.6158 0.279696 25.5545 0.170516 25.4453C0.0613365 25.3361 0 25.1881 0 25.0337C0 24.8793 0.0613365 24.7312 0.170516 24.622C0.279696 24.5128 0.427775 24.4515 0.582178 24.4515H3.49307V4.65743H0.582178C0.427775 4.65743 0.279696 4.59609 0.170516 4.48691C0.0613365 4.37773 0 4.22965 0 4.07525C0 3.92084 0.0613365 3.77277 0.170516 3.66359C0.279696 3.55441 0.427775 3.49307 0.582178 3.49307H3.49307V0.582178C3.49307 0.427775 3.55441 0.279696 3.66359 0.170516C3.77277 0.0613365 3.92084 0 4.07525 0C4.22965 0 4.37773 0.0613365 4.48691 0.170516C4.59609 0.279696 4.65743 0.427775 4.65743 0.582178V3.49307H24.4515ZM4.65743 4.65743V24.4515H24.4515V4.65743H4.65743ZM22.8172 10.7189V18.4586C22.8172 18.6748 22.757 18.8868 22.6433 19.0707C22.5296 19.2547 22.367 19.4033 22.1736 19.5L15.1366 23.0186V14.5592L22.8172 10.7189ZM13.9723 14.5452V23.0186L6.93535 19.5C6.74194 19.4033 6.57929 19.2547 6.4656 19.0707C6.35192 18.8868 6.29169 18.6748 6.29168 18.4586V10.705L13.9723 14.5452ZM6.82099 9.67426C6.85752 9.65049 6.89584 9.62881 6.93535 9.60891L14.0338 6.05941C14.1955 5.97869 14.3737 5.93667 14.5545 5.93667C14.7352 5.93667 14.9134 5.97869 15.0751 6.05941L22.1736 9.60891C22.2175 9.63089 22.2597 9.65554 22.3001 9.68228L14.5684 13.5481L6.82099 9.67426Z" fill="#303030"/>
</svg>
