<svg width="24" height="24" viewBox="0 0 24 24" fill="none" xmlns="http://www.w3.org/2000/svg">
  <defs>
    <mask id="userMask">
      <circle cx="12" cy="12" r="12" fill="white"/>
      <path 
        fill-rule="evenodd" 
        clip-rule="evenodd" 
        fill="black"
        stroke="black"
        strokeWidth="0.4px"
        d="M12.0002 4.83325C10.2513 4.83325 8.8335 6.25102 8.8335 7.99992C8.8335 9.74882 10.2513 11.1666 12.0002 11.1666C13.7491 11.1666 15.1668 9.74882 15.1668 7.99992C15.1668 6.25102 13.7491 4.83325 12.0002 4.83325ZM9.8335 7.99992C9.8335 6.8033 10.8035 5.83325 12.0002 5.83325C13.1968 5.83325 14.1668 6.8033 14.1668 7.99992C14.1668 9.19654 13.1968 10.1666 12.0002 10.1666C10.8035 10.1666 9.8335 9.19654 9.8335 7.99992Z" 
    />
    <path 
        fill="black"
        d="M16.5705 15.0485C16.7687 15.2408 16.7734 15.5574 16.5811 15.7556L15.359 17.0148C15.2602 17.1165 15.1229 17.1716 14.9813 17.1662C14.8396 17.1609 14.7069 17.0956 14.6161 16.9867L14.0604 16.3201C13.8836 16.1079 13.9122 15.7926 14.1244 15.6158C14.3365 15.439 14.6518 15.4677 14.8286 15.6798L15.0284 15.9195L15.8635 15.0591C16.0558 14.8609 16.3723 14.8562 16.5705 15.0485Z" 
    />
    <path 
        fill-rule="evenodd" 
        clip-rule="evenodd" 
        fill="black"
        stroke="black"
        strokeWidth="0.4px"
        d="M13.274 18.4054C12.8662 18.4672 12.4393 18.4999 12.0002 18.4999C10.6406 18.4999 9.38517 18.1861 8.45226 17.653C7.53349 17.128 6.8335 16.3265 6.8335 15.3333C6.8335 14.34 7.53349 13.5385 8.45226 13.0135C9.38517 12.4804 10.6406 12.1666 12.0002 12.1666C13.2031 12.1666 14.3219 12.4122 15.208 12.8357C15.2496 12.8341 15.2915 12.8333 15.3335 12.8333C17.0824 12.8333 18.5002 14.251 18.5002 15.9999C18.5002 17.7488 17.0824 19.1666 15.3335 19.1666C14.5471 19.1666 13.8277 18.8799 13.274 18.4054ZM13.1668 15.9999C13.1668 14.8033 14.1369 13.8333 15.3335 13.8333C16.5301 13.8333 17.5002 14.8033 17.5002 15.9999C17.5002 17.1965 16.5301 18.1666 15.3335 18.1666C14.1369 18.1666 13.1668 17.1965 13.1668 15.9999ZM13.6119 13.3417C12.7421 13.9061 12.1668 14.8858 12.1668 15.9999C12.1668 16.5352 12.2996 17.0394 12.5341 17.4815C12.3593 17.4937 12.1812 17.4999 12.0002 17.4999C10.7824 17.4999 9.70449 17.2168 8.9484 16.7847C8.17817 16.3446 7.8335 15.8128 7.8335 15.3333C7.8335 14.8537 8.17817 14.3219 8.9484 13.8818C9.70449 13.4497 10.7824 13.1666 12.0002 13.1666C12.5742 13.1666 13.118 13.2295 13.6119 13.3417Z" 
    />
    <path 
        fill="black"
        stroke="black"
        strokeWidth="0.4px"
        d="M12.0002 5.83325C10.8035 5.83325 9.8335 6.8033 9.8335 7.99992C9.8335 9.19654 10.8035 10.1666 12.0002 10.1666C13.1968 10.1666 14.1668 9.19654 14.1668 7.99992C14.1668 6.8033 13.1968 5.83325 12.0002 5.83325Z" 
    />
    <path 
        fill="black"
        stroke="black"
        strokeWidth="0.4px"
        d="M12.1668 15.9999C12.1668 14.8858 12.7421 13.9061 13.6119 13.3417C13.118 13.2295 12.5742 13.1666 12.0002 13.1666C10.7824 13.1666 9.70449 13.4497 8.9484 13.8818C8.17817 14.3219 7.8335 14.8537 7.8335 15.3333C7.8335 15.8128 8.17817 16.3446 8.9484 16.7847C9.70449 17.2168 10.7824 17.4999 12.0002 17.4999C12.1812 17.4999 12.3593 17.4937 12.5341 17.4815C12.2996 17.0394 12.1668 16.5352 12.1668 15.9999Z" 
    />
    </mask>
  </defs>
  
  <!-- Результат: круг с вырезанным силуэтом человека -->
  <circle cx="12" cy="12" r="12" fill="currentColor" mask="url(#userMask)"/>
</svg>